<?xml version="1.0" encoding="utf-8"?>
<!-- Generator: Adobe Illustrator 24.0.0, SVG Export Plug-In . SVG Version: 6.00 Build 0)  -->
<svg version="1.1" id="Capa_1" xmlns="http://www.w3.org/2000/svg" xmlns:xlink="http://www.w3.org/1999/xlink" x="0px" y="0px"
	 viewBox="0 0 437.59 437.59" style="enable-background:new 0 0 437.59 437.59;" xml:space="preserve">
<style type="text/css">
	.st0{fill:#F91942;}
</style>
<g>
	<path class="st0" d="M109.03,34.26h39.54c3.04,0,5.5-2.46,5.5-5.5s-2.46-5.5-5.5-5.5h-39.54c-3.04,0-5.5,2.46-5.5,5.5
		S105.99,34.26,109.03,34.26z"/>
	<path class="st0" d="M128.8,383.77c-9.89,0-17.93,8.04-17.93,17.93s8.04,17.93,17.93,17.93s17.93-8.04,17.93-17.93
		S138.68,383.77,128.8,383.77z M128.8,408.63c-3.82,0-6.93-3.11-6.93-6.93s3.11-6.93,6.93-6.93c3.82,0,6.93,3.11,6.93,6.93
		S132.62,408.63,128.8,408.63z"/>
	<path class="st0" d="M59.88,129.16h69.48c3.04,0,5.5-2.46,5.5-5.5s-2.46-5.5-5.5-5.5H59.88c-3.04,0-5.5,2.46-5.5,5.5
		S56.84,129.16,59.88,129.16z"/>
	<path class="st0" d="M59.88,228.58h69.48c3.04,0,5.5-2.46,5.5-5.5s-2.46-5.5-5.5-5.5H59.88c-3.04,0-5.5,2.46-5.5,5.5
		S56.84,228.58,59.88,228.58z"/>
	<path class="st0" d="M158.74,237.92H59.88c-3.04,0-5.5,2.46-5.5,5.5s2.46,5.5,5.5,5.5h98.85c3.04,0,5.5-2.46,5.5-5.5
		S161.77,237.92,158.74,237.92z"/>
	<path class="st0" d="M425.4,218.52c3.04,0,5.5-2.46,5.5-5.5V72.09c0-3.04-2.46-5.5-5.5-5.5H250.9V22.91
		C250.9,10.28,240.63,0,227.99,0H29.6C16.96,0,6.68,10.28,6.68,22.91v391.77c0,12.63,10.28,22.91,22.91,22.91h198.4
		c12.63,0,22.91-10.28,22.91-22.91v-81.83h174.5c3.04,0,5.5-2.46,5.5-5.5V244.3c0-3.04-2.46-5.5-5.5-5.5H250.9v-20.28L425.4,218.52
		L425.4,218.52z M419.9,207.52H179.35V77.59H419.9V207.52z M173.85,238.8c-3.04,0-5.5,2.46-5.5,5.5v29.91h-125V183.3h125v13.95
		H59.88c-3.04,0-5.5,2.46-5.5,5.5s2.46,5.5,5.5,5.5h108.47v4.78c0,3.04,2.46,5.5,5.5,5.5h40.4v20.28L173.85,238.8L173.85,238.8z
		 M173.85,332.85h40.4v9.27H43.35v-37.17h125v22.4C168.35,330.39,170.81,332.85,173.85,332.85z M168.35,97.83H59.88
		c-3.04,0-5.5,2.46-5.5,5.5s2.46,5.5,5.5,5.5h108.47v44.27h-125V84.88h125V97.83z M29.59,11h198.4c6.57,0,11.91,5.34,11.91,11.91
		v29.06H17.68V22.91C17.68,16.34,23.03,11,29.59,11z M227.99,426.59H29.6c-6.57,0-11.91-5.34-11.91-11.91v-38.1H239.9v38.1
		C239.9,421.25,234.56,426.59,227.99,426.59z M239.9,365.58H17.68V62.97H239.9v3.62h-66.06c-3.04,0-5.5,2.46-5.5,5.5v1.79H37.85
		c-3.04,0-5.5,2.46-5.5,5.5v79.22c0,3.04,2.46,5.5,5.5,5.5h130.5v8.2H37.85c-3.04,0-5.5,2.46-5.5,5.5v101.91
		c0,3.04,2.46,5.5,5.5,5.5h130.5v8.74H37.85c-3.04,0-5.5,2.46-5.5,5.5v48.17c0,3.04,2.46,5.5,5.5,5.5h181.9c3.04,0,5.5-2.46,5.5-5.5
		v-14.77h14.66V365.58z M419.9,321.85H179.35V249.8H419.9V321.85z M239.9,238.8h-14.66v-20.28h14.66V238.8z"/>
	<path class="st0" d="M204.32,112.09h190.62c3.04,0,5.5-2.46,5.5-5.5s-2.46-5.5-5.5-5.5H204.32c-3.04,0-5.5,2.46-5.5,5.5
		S201.28,112.09,204.32,112.09z"/>
	<path class="st0" d="M204.32,140.21h96.09c3.04,0,5.5-2.46,5.5-5.5s-2.46-5.5-5.5-5.5h-96.09c-3.04,0-5.5,2.46-5.5,5.5
		S201.28,140.21,204.32,140.21z"/>
	<path class="st0" d="M204.32,275.47h190.62c3.04,0,5.5-2.46,5.5-5.5s-2.46-5.5-5.5-5.5H204.32c-3.04,0-5.5,2.46-5.5,5.5
		S201.28,275.47,204.32,275.47z"/>
	<path class="st0" d="M204.32,303.59h96.09c3.04,0,5.5-2.46,5.5-5.5s-2.46-5.5-5.5-5.5h-96.09c-3.04,0-5.5,2.46-5.5,5.5
		S201.28,303.59,204.32,303.59z"/>
	<path class="st0" d="M204.32,168.33h136.71c3.04,0,5.5-2.46,5.5-5.5s-2.46-5.5-5.5-5.5H204.32c-3.04,0-5.5,2.46-5.5,5.5
		S201.28,168.33,204.32,168.33z"/>
	<path class="st0" d="M116.93,318.13H59.88c-3.04,0-5.5,2.46-5.5,5.5s2.46,5.5,5.5,5.5h57.05c3.04,0,5.5-2.46,5.5-5.5
		S119.97,318.13,116.93,318.13z"/>
</g>
</svg>
