<?xml version="1.0" encoding="utf-8"?>
<!-- Generator: Adobe Illustrator 24.0.0, SVG Export Plug-In . SVG Version: 6.00 Build 0)  -->
<svg version="1.1" id="Layer_1" xmlns="http://www.w3.org/2000/svg" xmlns:xlink="http://www.w3.org/1999/xlink" x="0px" y="0px"
	 viewBox="0 0 512 512" style="enable-background:new 0 0 512 512;" xml:space="preserve">
<style type="text/css">
	.st0{fill:#F91942;}
</style>
<g>
	<g>
		<path class="st0" d="M218.6,133.9H211c-13.5,0-24.6-11-24.6-24.6c0-4.8-3.9-8.6-8.6-8.6s-8.6,3.9-8.6,8.6c0,9.2,3,17.7,8,24.6
			h-18.8H119c-4.8,0-8.6,3.9-8.6,8.6s3.9,8.6,8.6,8.6h39.4c13.5,0,24.6,11,24.6,24.6v12.6c0,4.8,3.9,8.6,8.6,8.6s8.6-3.9,8.6-8.6
			v-12.6c0-9.2-3-17.7-8-24.6h26.4c4.8,0,8.6-3.9,8.6-8.6C227.2,137.8,223.4,133.9,218.6,133.9z"/>
	</g>
</g>
<g>
	<g>
		<path class="st0" d="M380.3,133.9h-39.4h-18.8c5-6.9,8-15.4,8-24.6c0-4.8-3.9-8.6-8.6-8.6s-8.6,3.9-8.6,8.6
			c0,13.5-11,24.6-24.6,24.6h-7.6c-4.8,0-8.6,3.9-8.6,8.6s3.9,8.6,8.6,8.6h26.4c-5,6.9-8,15.4-8,24.6v12.6c0,4.8,3.9,8.6,8.6,8.6
			s8.6-3.9,8.6-8.6v-12.6c0-13.5,11-24.6,24.6-24.6h39.4c4.8,0,8.6-3.9,8.6-8.6C388.9,137.8,385,133.9,380.3,133.9z"/>
	</g>
</g>
<g>
	<g>
		<path class="st0" d="M385,91.8C381.1,66.5,359.2,47,332.7,47h-24c-6.2-27.3-30.3-47-59-47s-52.9,19.7-59,47h-24
			c-26.4,0-48.4,19.5-52.3,44.8c-25.4,3.9-44.8,25.8-44.8,52.3c0,29.1,23.7,52.9,52.9,52.9h8.2c9.3,25.9,33.8,43.5,61.9,43.5
			c23.5,0,45.1-12.2,57.2-30.8c12.1,18.6,33.7,30.8,57.2,30.8c28.1,0,52.7-17.6,61.9-43.5h8.2c29.1,0,52.9-23.7,52.9-52.9
			C429.8,117.7,410.4,95.7,385,91.8z M377,179.7h-14.6c-4,0-7.4,2.7-8.4,6.6c-5.3,21.8-24.7,37-47.1,37c-22.3,0-43-15.4-48.5-36.1
			v-60.6c0-10.1,8.2-18.2,18.2-18.2h5.5c4.8,0,8.6-3.9,8.6-8.6s-3.9-8.6-8.6-8.6h-5.5c-6.7,0-12.9,1.9-18.2,5.1V73.6
			c0-4.8-3.9-8.6-8.6-8.6s-8.6,3.9-8.6,8.6v22.6c-5.3-3.2-11.6-5.1-18.2-5.1h-5.5c-4.8,0-8.6,3.9-8.6,8.6s3.9,8.6,8.6,8.6h5.5
			c10.1,0,18.2,8.2,18.2,18.2v60.6c-5.5,20.6-26.2,36.1-48.5,36.1c-22.4,0-41.8-15.2-47.1-37c-0.9-3.9-4.4-6.6-8.4-6.6h-14.6
			c-19.6,0-35.6-16-35.6-35.6s16-35.6,35.6-35.6H150c4.8,0,8.6-3.9,8.6-8.6s-3.9-8.6-8.6-8.6h-17.8c3.9-15.5,17.9-27,34.6-27h22.8
			v12.1c0,4.8,3.9,8.6,8.6,8.6s8.6-3.9,8.6-8.6V56.1c2.2-22.2,20.7-38.9,43.1-38.9c22.5,0,41,16.8,43.1,39.2c0,0.4,0.1,0.8,0.2,1.2
			v18.8c0,4.8,3.9,8.6,8.6,8.6c4.8,0,8.6-3.9,8.6-8.6V64.2h22.5c16.7,0,30.7,11.5,34.6,27h-17.8c-4.8,0-8.6,3.9-8.6,8.6
			s3.9,8.6,8.6,8.6H377c19.6,0,35.6,16,35.6,35.6C412.6,163.7,396.6,179.7,377,179.7z"/>
	</g>
</g>
<g>
	<g>
		<path class="st0" d="M249.7,233.6c-4.8,0-8.6,3.9-8.6,8.6v41.4c0,4.8,3.9,8.6,8.6,8.6s8.6-3.9,8.6-8.6v-41.4
			C258.3,237.5,254.4,233.6,249.7,233.6z"/>
	</g>
</g>
<g>
	<g>
		<path class="st0" d="M249.7,366.1c-4.8,0-8.6,3.9-8.6,8.6v41.4c0,4.8,3.9,8.6,8.6,8.6s8.6-3.9,8.6-8.6v-41.4
			C258.3,369.9,254.4,366.1,249.7,366.1z"/>
	</g>
</g>
<g>
	<g>
		<path class="st0" d="M154.8,344.7c-2.4-4.1-7.7-5.5-11.8-3l-43.4,25.6c-2.6,1.5-4.2,4.4-4.2,7.4v41.4c0,4.8,3.9,8.6,8.6,8.6
			s8.6-3.9,8.6-8.6v-36.5l39.2-23.1C155.8,354.1,157.2,348.8,154.8,344.7z"/>
	</g>
</g>
<g>
	<g>
		<path class="st0" d="M324.7,297.4h-150c-4.8,0-8.6,3.9-8.6,8.6v43.1c0,4.8,3.9,8.6,8.6,8.6h150c4.8,0,8.6-3.9,8.6-8.6V306
			C333.3,301.2,329.4,297.4,324.7,297.4z M316.1,340.5H183.3v-25.9h132.8V340.5z"/>
	</g>
</g>
<g>
	<g>
		<path class="st0" d="M284.6,432.8h-69.1c-4.8,0-8.6,3.9-8.6,8.6v61.9c0,4.8,3.9,8.6,8.6,8.6h69.1c4.8,0,8.6-3.9,8.6-8.6v-61.9
			C293.2,436.7,289.3,432.8,284.6,432.8z M276,494.8h-51.8v-44.7H276V494.8z"/>
	</g>
</g>
<g>
	<g>
		<path class="st0" d="M103.9,433.2c-21.7,0-39.4,17.7-39.4,39.4S82.2,512,103.9,512s39.4-17.7,39.4-39.4S125.6,433.2,103.9,433.2z
			 M103.9,494.8c-12.2,0-22.1-9.9-22.1-22.1s9.9-22.1,22.1-22.1s22.1,9.9,22.1,22.1S116.1,494.8,103.9,494.8z"/>
	</g>
</g>
<g>
	<g>
		<path class="st0" d="M443.7,463.6L401,434c-3-2.1-6.9-2.1-9.8,0l-42.7,29.6c-2.3,1.6-3.7,4.3-3.7,7.1c0,2.8,1.4,5.5,3.7,7.1
			l42.7,29.6c1.5,1,3.2,1.5,4.9,1.5s3.4-0.5,4.9-1.5l42.7-29.6c2.3-1.6,3.7-4.3,3.7-7.1C447.4,467.8,446.1,465.2,443.7,463.6z
			 M396.2,489.8l-27.6-19.1l27.6-19.1l27.6,19.1L396.2,489.8z"/>
	</g>
</g>
<g>
	<g>
		<path class="st0" d="M400.5,367.3l-43.4-25.6c-4.1-2.4-9.4-1.1-11.8,3s-1.1,9.4,3,11.8l39.2,23.1v36.5c0,4.8,3.9,8.6,8.6,8.6
			c4.8,0,8.6-3.9,8.6-8.6v-41.4C404.8,371.7,403.2,368.8,400.5,367.3z"/>
	</g>
</g>
</svg>
