<?xml version="1.0" encoding="utf-8"?>
<!-- Generator: Adobe Illustrator 24.0.0, SVG Export Plug-In . SVG Version: 6.00 Build 0)  -->
<svg version="1.1" id="Layer_1" xmlns="http://www.w3.org/2000/svg" xmlns:xlink="http://www.w3.org/1999/xlink" x="0px" y="0px"
	 viewBox="0 0 470 470" style="enable-background:new 0 0 470 470;" xml:space="preserve">
<style type="text/css">
	.st0{fill:#F91942;}
</style>
<g>
	<path class="st0" d="M167.31,209.12c-2.12-3.56-6.72-4.73-10.28-2.6l-87.37,52.04c-2.27,1.35-3.66,3.8-3.66,6.44
		s1.39,5.09,3.66,6.44l87.37,52.04c1.2,0.72,2.52,1.06,3.83,1.06c2.56,0,5.05-1.31,6.45-3.66c2.12-3.56,0.95-8.16-2.6-10.28
		L88.16,265l76.55-45.6C168.27,217.28,169.43,212.68,167.31,209.12L167.31,209.12z"/>
	<path class="st0" d="M302.69,320.88c1.4,2.36,3.89,3.66,6.45,3.66c1.31,0,2.63-0.34,3.83-1.06l87.37-52.04
		c2.27-1.35,3.66-3.8,3.66-6.44s-1.39-5.09-3.66-6.44l-87.37-52.04c-3.56-2.12-8.16-0.95-10.28,2.6c-2.12,3.56-0.95,8.16,2.61,10.28
		l76.55,45.6l-76.55,45.6C301.73,312.71,300.57,317.32,302.69,320.88z"/>
	<path class="st0" d="M263.72,208.78l-69.89,104.08c-2.31,3.44-1.39,8.1,2.04,10.41c1.28,0.86,2.74,1.27,4.18,1.27
		c2.41,0,4.79-1.17,6.23-3.32l69.89-104.08c2.31-3.44,1.39-8.1-2.05-10.41C270.69,204.42,266.03,205.34,263.72,208.78L263.72,208.78
		z"/>
	<path class="st0" d="M462.5,22.5H7.5C3.36,22.5,0,25.86,0,30v410c0,4.14,3.36,7.5,7.5,7.5h455c4.14,0,7.5-3.36,7.5-7.5v-80
		c0-4.14-3.36-7.5-7.5-7.5s-7.5,3.36-7.5,7.5v72.5H15v-335h440V330c0,4.14,3.36,7.5,7.5,7.5s7.5-3.36,7.5-7.5V30
		C470,25.86,466.64,22.5,462.5,22.5z M15,37.5h277.5v45H15V37.5z M307.5,82.5v-45H455v45H307.5z"/>
	<path class="st0" d="M381.5,52c-4.41,0-8,3.59-8,8s3.59,8,8,8s8-3.59,8-8S385.91,52,381.5,52z"/>
	<path class="st0" d="M340.5,52c-4.41,0-8,3.59-8,8s3.59,8,8,8s8-3.59,8-8S344.91,52,340.5,52z"/>
	<path class="st0" d="M422.5,52c-4.41,0-8,3.59-8,8s3.59,8,8,8s8-3.59,8-8S426.91,52,422.5,52z"/>
</g>
</svg>
