<svg xmlns="http://www.w3.org/2000/svg" xmlns:xlink="http://www.w3.org/1999/xlink" width="250" height="250" viewBox="0 0 250 250">
  <defs>
    <clipPath id="clip-crypto_world">
      <rect width="250" height="250"/>
    </clipPath>
  </defs>
  <g id="crypto_world" data-name="crypto world" clip-path="url(#clip-crypto_world)">
    <g id="Group_27" data-name="Group 27" transform="translate(-5295 -290)">
      <rect id="Rectangle_31" data-name="Rectangle 31" width="250" height="250" transform="translate(5295 290)" fill="none"/>
      <g id="worldwide" transform="translate(5223.1 730)">
        <path id="Path_105" data-name="Path 105" d="M227.581-430.555c-10.44,3.591-19.75,13.5-27.862,29.591-3.325,6.716-5.719,12.5-5.719,13.9,0,.931,4.788,2.726,12.634,4.655a118.137,118.137,0,0,0,51.734,1.33c8.379-1.729,18.087-4.921,18.087-5.985,0-1.4-2.394-7.115-5.785-13.9C258.7-424.969,242.942-435.808,227.581-430.555Z" transform="translate(-38.227 0)" fill="#fff"/>
        <path id="Path_106" data-name="Path 106" d="M182-423.911c-8.379,2.726-23.473,10.374-30.589,15.56a50.79,50.79,0,0,0-6.118,4.788c-.4,1.2,19.284,14.164,21.478,14.164.465,0,1.2-1.131,1.662-2.527,2.593-8.113,11.238-23.274,17.422-30.589,2.194-2.593,2.793-3.524,2.327-3.391C188.054-425.906,185.328-425.042,182-423.911Z" transform="translate(-21.908 -1.989)" fill="#fff"/>
        <path id="Path_107" data-name="Path 107" d="M302-425.524a23.516,23.516,0,0,0,2.46,3.125c6.184,7.315,14.829,22.476,17.422,30.589.466,1.4,1.2,2.527,1.662,2.527,2.261,0,21.877-12.9,21.478-14.164a50.783,50.783,0,0,0-6.118-4.788,136.189,136.189,0,0,0-24.936-13.5C308.783-423.8,302-425.923,302-425.524Z" transform="translate(-74.411 -2.104)" fill="#fff"/>
        <path id="Path_110" data-name="Path 110" d="M110.223-376.212a118.634,118.634,0,0,0-26.466,49.407A135.929,135.929,0,0,0,80.3-306.723l-.4,3.524h53.064l.532-8.179a235.811,235.811,0,0,1,6.716-45.151c.864-3.524,1.6-6.583,1.6-6.716a35.387,35.387,0,0,0-5.12-3.192,127.275,127.275,0,0,1-18.22-12.036A23.684,23.684,0,0,0,115.01-381,55.671,55.671,0,0,0,110.223-376.212Z" transform="translate(0 -17.038)" fill="#fff"/>
        <path id="Path_111" data-name="Path 111" d="M363.271-379.072A172.509,172.509,0,0,1,344.187-366.5,52.851,52.851,0,0,0,339-363.445c0,.133.864,3.857,1.928,8.246a239.291,239.291,0,0,1,6.45,44.087l.466,7.847h53.064l-.4-3.524c-1.6-13.831-3.724-23.141-7.381-32.65-5.187-13.366-13.964-27.663-22.875-37.172l-4.322-4.588Z" transform="translate(-86.807 -16.971)" fill="#fff"/>
        <path id="Path_112" data-name="Path 112" d="M183.284-344.077a285.2,285.2,0,0,0-5.519,28.993c-1.463,10.905-1.729,42.159-.4,53.2,1.529,12.767,5.852,34.911,7.115,36.108a38.542,38.542,0,0,0,6.517-1.8c25-7.98,53.6-7.913,77.668.266a52.32,52.32,0,0,0,5.32,1.662c.6,0,4.189-15.095,5.519-23.274,2.194-13.9,2.726-20.747,2.726-37.9,0-17.954-.6-25.734-3.059-39.9-1.2-6.982-4.389-20.614-4.921-21.146a38.532,38.532,0,0,0-6.517,1.8,127.073,127.073,0,0,1-76.6.066c-3.391-1.13-6.251-1.995-6.45-1.995S183.882-346.2,183.284-344.077Zm40.762,25.335v5.32h10.639v-10.639h10.639v11.836l1.995.8c2.793,1.13,6.916,5.985,7.847,9.177a14.41,14.41,0,0,1-1.13,11.77c-1.928,3.857-1.928,3.923-.8,5.586,4.322,6.184,3.059,15.361-2.859,20.548a17.406,17.406,0,0,1-3.657,2.46c-1.263.4-1.4.931-1.4,6.384v5.918H234.686v-10.639H224.046v10.639H213.407v-10.639H202.767v-10.639h10.639v-31.918H202.767v-10.639h10.639v-10.639h10.639Z" transform="translate(-32.365 -28.094)" fill="#fff"/>
        <path id="Path_113" data-name="Path 113" d="M248-274.68v5.32h8.977c8.711,0,9.11-.066,10.64-1.662a5.183,5.183,0,0,0,1.662-3.657,5.184,5.184,0,0,0-1.662-3.657c-1.529-1.6-1.928-1.662-10.64-1.662H248Z" transform="translate(-56.319 -50.876)" fill="#fff"/>
        <path id="Path_114" data-name="Path 114" d="M248-242.68v5.32h8.977c8.711,0,9.11-.066,10.64-1.662a5.184,5.184,0,0,0,1.662-3.657,5.184,5.184,0,0,0-1.662-3.657c-1.529-1.6-1.928-1.662-10.64-1.662H248Z" transform="translate(-56.319 -61.597)" fill="#fff"/>
        <path id="Path_115" data-name="Path 115" d="M80.3-244.542c1.6,13.9,3.724,23.207,7.381,32.716,5.187,13.366,13.964,27.6,22.941,37.238l4.389,4.655,3.258-2.66a140.422,140.422,0,0,1,19.75-12.967,16.691,16.691,0,0,0,3.79-2.327c0-.2-.731-3.258-1.6-6.783a235.726,235.726,0,0,1-6.716-45.218L132.964-248H79.9Z" transform="translate(0 -61.597)" fill="#fff"/>
        <path id="Path_116" data-name="Path 116" d="M347.379-240.22a239.185,239.185,0,0,1-6.45,44.154c-1.064,4.389-1.928,8.113-1.928,8.246a38.657,38.657,0,0,0,5.054,2.926,151.316,151.316,0,0,1,18.553,12.169l3.325,2.66,4.455-4.788a116.5,116.5,0,0,0,16.757-24.005c7.78-14.829,11.172-26.4,13.366-45.683l.4-3.458H347.844Z" transform="translate(-86.807 -61.597)" fill="#fff"/>
        <path id="Path_119" data-name="Path 119" d="M224.588-159.468c-12.3,1.2-30.589,5.918-30.589,7.847,0,1.4,2.394,7.182,5.785,13.9,7.98,16.026,17.489,26.067,28,29.591,15.294,5.187,30.921-5.586,42.89-29.591,3.391-6.783,5.785-12.5,5.785-13.9,0-1.8-16.691-6.184-28.926-7.647A155.939,155.939,0,0,0,224.588-159.468Z" transform="translate(-38.227 -91.146)" fill="#fff"/>
        <path id="Path_120" data-name="Path 120" d="M160.525-137.875c-6.45,3.79-15.494,10.307-15.228,11.038a50.788,50.788,0,0,0,6.118,4.788,144.034,144.034,0,0,0,23.606,13.033c4.123,1.662,13.3,4.588,13.3,4.256a23.517,23.517,0,0,0-2.46-3.125c-6.184-7.315-14.829-22.476-17.422-30.655-.465-1.33-1.2-2.46-1.662-2.46A37.562,37.562,0,0,0,160.525-137.875Z" transform="translate(-21.908 -97.445)" fill="#fff"/>
        <path id="Path_121" data-name="Path 121" d="M321.882-138.54c-2.593,8.179-11.238,23.34-17.422,30.655a23.519,23.519,0,0,0-2.46,3.125c0,.4,6.783-1.729,11.969-3.79a136.18,136.18,0,0,0,24.936-13.5,50.779,50.779,0,0,0,6.118-4.788c.4-1.263-19.218-14.164-21.478-14.164C323.079-141,322.348-139.87,321.882-138.54Z" transform="translate(-74.411 -97.445)" fill="#fff"/>
      </g>
    </g>
  </g>
</svg>
