<svg xmlns="http://www.w3.org/2000/svg" xmlns:xlink="http://www.w3.org/1999/xlink" width="250" height="250" viewBox="0 0 250 250">
  <defs>
    <clipPath id="clip-exchange_development">
      <rect width="250" height="250"/>
    </clipPath>
  </defs>
  <g id="exchange_development" data-name="exchange development" clip-path="url(#clip-exchange_development)">
    <g id="Group_26" data-name="Group 26" transform="translate(-3895 -793)">
      <rect id="Rectangle_30" data-name="Rectangle 30" width="250" height="250" transform="translate(3895 793)" fill="none"/>
      <g id="exchange" transform="translate(3902.5 1313.138)">
        <path id="Path_93" data-name="Path 93" d="M58.737-511.314a65.286,65.286,0,0,0-38.308,18.424c-9.9,9.577-15.87,20.568-18.835,34.477a75.035,75.035,0,0,0,0,25.539c5.655,26.724,25.128,46.334,51.716,52.081,6.7,1.414,19.473,1.414,26.177,0a68.788,68.788,0,0,0,17.375-6.248,66.428,66.428,0,0,0,34.386-45.514c1.414-6.7,1.414-19.473,0-26.177-6.613-30.6-32.06-51.944-63.026-52.81A83.012,83.012,0,0,0,58.737-511.314Zm14.274,7.8a56.986,56.986,0,0,1,35.252,17.467,58.082,58.082,0,0,1-.638,81.633,58.12,58.12,0,0,1-81.313.958,58.06,58.06,0,0,1-6.521-77.163,63.986,63.986,0,0,1,20.477-17.193A58.842,58.842,0,0,1,73.012-503.515Z" transform="translate(0 0)" fill="#fff"/>
        <path id="Path_94" data-name="Path 94" d="M77.526-477.223A49.037,49.037,0,0,0,49.205-462.9a48.319,48.319,0,0,0-14.411,29.461c-3.512,26.952,15.141,51.67,42.412,56.094a50.254,50.254,0,0,0,44.328-15.323,49.457,49.457,0,0,0,13.225-27c4.515-27.91-15.87-54.589-44.145-57.736A42.078,42.078,0,0,0,77.526-477.223Zm12.541,7.57a46.45,46.45,0,0,1,16.737,5.7,48.14,48.14,0,0,1,14.867,15,43.2,43.2,0,0,1,4.834,31.194c-4.88,21.343-25.4,35.754-46.927,32.927a43.067,43.067,0,0,1-36.347-32.744,46.491,46.491,0,0,1,0-19.428,42.912,42.912,0,0,1,36.21-32.653A34.57,34.57,0,0,1,90.067-469.653Z" transform="translate(-18.424 -18.357)" fill="#fff"/>
        <path id="Path_95" data-name="Path 95" d="M118.328-440c0,4.241-.182,4.606-2.235,4.606-1.551,0-7.16,3.147-9.121,5.062-8.163,8.209-4.1,20.385,8.072,24.125a36.257,36.257,0,0,0,6.476,1.14c4.788.41,8.026,1.6,9.942,3.557,3.876,3.968,2.052,8.847-4.1,11.082a20.237,20.237,0,0,1-10.17.182c-4.15-1.368-6.02-3.42-7.069-7.662a3.317,3.317,0,0,0-2.052-2.691,2.874,2.874,0,0,0-3.01-.137c-1.961.821-2.736,2.782-2.235,5.564,1.14,5.974,6.385,10.945,13.362,12.724l2.143.5v8.118h7.753v-8.118l2.873-.866c11.9-3.648,16.1-15.369,8.482-23.623-3.648-3.922-7.206-5.427-15.05-6.385-5.974-.684-8.118-1.551-10.352-4.1a4.4,4.4,0,0,1-1.459-3.466c0-4.606,4.834-7.8,11.812-7.8a11.624,11.624,0,0,1,6.248,1.459c2.964,1.459,4.378,3.1,4.971,5.7.593,2.691.775,2.964,2.052,3.648,1.87.958,2.964.866,4.424-.41,1.095-.958,1.277-1.414,1.231-3.42-.182-6.111-5.883-12.131-13.271-14.138l-1.915-.547-.137-3.968-.137-3.968-3.74-.137-3.785-.137Z" transform="translate(-55.578 -36.704)" fill="#fff"/>
        <path id="Path_96" data-name="Path 96" d="M305.212-450.742C300.15-445.68,296-441.3,296-441.074c0,.274,4.241,4.743,9.486,9.942l9.44,9.44,2.736-2.736,2.736-2.736-5.017-5.062-5.017-5.062,11.4.228c9.714.182,11.948.365,15.049,1.186a35.573,35.573,0,0,1,12.861,6.248,33.231,33.231,0,0,1,9.942,12.268c3.192,6.476,3.466,8.3,3.74,22.438l.228,12.45h7.753l-.228-12.906c-.228-15-.684-17.6-4.424-25.219a42.165,42.165,0,0,0-34.2-23.9c-2.554-.228-8.482-.456-13.134-.456h-8.528l4.788-4.788,4.789-4.788-2.736-2.736A26.22,26.22,0,0,0,314.7-460C314.561-460,310.32-455.85,305.212-450.742Z" transform="translate(-160.738 -28.055)" fill="#fff"/>
        <path id="Path_97" data-name="Path 97" d="M280.244-289.347a66.78,66.78,0,0,0-38.49,18.972,62.983,62.983,0,0,0-12.587,17.74c-5.153,10.626-6.567,16.828-6.567,28.959,0,9.395.775,14.183,3.42,21.753a66.464,66.464,0,0,0,40.771,40.634c7.707,2.645,12.769,3.42,21.662,3.42s13.955-.775,21.662-3.42a66.538,66.538,0,0,0,40.725-40.725c2.645-7.707,3.42-12.769,3.42-21.662s-.775-13.955-3.42-21.662a66.691,66.691,0,0,0-50.393-43.37C295.7-289.575,284.44-289.939,280.244-289.347Zm16.418,7.981a57.243,57.243,0,0,1,32.2,15.825,58.152,58.152,0,0,1-11.447,92.4,59.636,59.636,0,0,1-35.116,7.388c-14.274-1.687-25.949-7.388-35.708-17.512a57.881,57.881,0,0,1-9.987-67.039C247.865-272.382,272.4-285.06,296.662-281.366Z" transform="translate(-120.812 -120.725)" fill="#fff"/>
        <path id="Path_98" data-name="Path 98" d="M299.638-255.393a50.515,50.515,0,0,0-28.184,14.046,50.221,50.221,0,0,0,.638,72.785c17.147,16.19,42.732,18.287,62.889,5.2,3.831-2.508,11.128-9.805,13.636-13.636a51.271,51.271,0,0,0,8.163-22.483,35.541,35.541,0,0,0,0-11.629A50.611,50.611,0,0,0,329.145-250.6C320.89-254.8,308.942-256.716,299.638-255.393Zm12.861,7.753a45.7,45.7,0,0,1,15.87,5.518,48.139,48.139,0,0,1,15,14.867,42.763,42.763,0,0,1-20.248,61.293,42.762,42.762,0,0,1-38.4-2.645,48.14,48.14,0,0,1-14.867-15,42.54,42.54,0,0,1,7.3-52.491c7.206-6.841,14.138-10.124,24.991-11.766A44.663,44.663,0,0,1,312.5-247.641Z" transform="translate(-139.066 -139.126)" fill="#fff"/>
        <path id="Path_99" data-name="Path 99" d="M327.675-220.641a28.484,28.484,0,0,0-.274,3.876v2.463H316v7.753h7.753l-.091,19.473-.137,19.519-3.74.137-3.785.137v7.707h11.4v2.463a28.483,28.483,0,0,0,.274,3.876l.319,1.459,3.694-.137,3.694-.137-.046-3.785-.046-3.74h3.968v7.753h7.753v-7.616l3.42-.274a22.766,22.766,0,0,0,4.971-.958,13,13,0,0,0,6.2-6.293c.912-2.1.958-2.919.821-8.984-.137-6.339-.182-6.749-1.414-8.847l-1.277-2.143,1.277-2.189c1.231-2.052,1.277-2.463,1.414-8.8.137-6.065.091-6.886-.821-8.984-2.007-4.606-6.567-7.388-12.176-7.388h-2.417v-7.753h-7.753v7.753h-3.968l.046-3.785.046-3.74-3.694-.137-3.694-.137Zm25.995,15.6c1,1.186,1.095,1.642,1.095,6.521,0,4.971-.046,5.29-1.14,6.339l-1.095,1.14H331.506v-15.551l10.535.137,10.535.137Zm-1.414,22.392a4.874,4.874,0,0,1,2.007,1.551,23.168,23.168,0,0,1,.5,5.792,23.168,23.168,0,0,1-.5,5.792c-1,1.87-2.964,2.189-13.18,2.189h-9.577V-183.29h9.577C348.334-183.29,351.07-183.154,352.256-182.652Z" transform="translate(-171.617 -157.462)" fill="#fff"/>
        <path id="Path_100" data-name="Path 100" d="M51.028-209.139c.228,15.05.684,17.649,4.424,25.265a42.165,42.165,0,0,0,34.2,23.9c2.554.228,7.662.456,11.31.456h6.7l-4.925,4.925-4.88,4.88,2.736,2.736,2.736,2.736,9.714-9.714,9.668-9.668-9.668-9.668-9.714-9.714-2.508,2.508a13.331,13.331,0,0,0-2.508,2.964,37.584,37.584,0,0,0,4.56,5.017,42.56,42.56,0,0,1,4.56,4.971c0,.228-3.785.319-9.212.137-10.215-.274-13.955-.958-19.519-3.557a38.555,38.555,0,0,1-11.857-9.212,43.7,43.7,0,0,1-7.114-14c-.547-2.235-.775-6.02-.958-15.414L58.553-222H50.8Z" transform="translate(-27.361 -157.516)" fill="#fff"/>
      </g>
    </g>
  </g>
</svg>
