<svg xmlns="http://www.w3.org/2000/svg" xmlns:xlink="http://www.w3.org/1999/xlink" width="250" height="250" viewBox="0 0 250 250">
  <defs>
    <clipPath id="clip-_hiring_policies">
      <rect width="250" height="250"/>
    </clipPath>
  </defs>
  <g id="_hiring_policies" data-name=" hiring policies" clip-path="url(#clip-_hiring_policies)">
    <g id="Group_29" data-name="Group 29" transform="translate(-2961 -415)">
      <rect id="Rectangle_33" data-name="Rectangle 33" width="250" height="250" transform="translate(2961 415)" fill="none"/>
      <g id="hiring" transform="translate(2969.2 914.885)">
        <path id="Path_129" data-name="Path 129" d="M158.128-474.481a74.555,74.555,0,0,0-44.233,21.226,73.043,73.043,0,0,0-9.13,92.438c21.363,32.045,64.044,42.179,97.231,23.144,2.282-1.324,4.2-2.374,4.337-2.374s6.254,6.254,13.649,13.923,15.064,15.612,17.072,17.62l3.606,3.7-.776,1.506c-1.506,2.922-1.141,3.424,11.275,15.84,6.345,6.3,12.051,11.686,12.645,12.005,2.146,1.1,3.88.228,8.719-4.428,4.839-4.61,5.2-5.341,3.926-7.806-.365-.685-5.752-6.3-12.006-12.508-11.549-11.5-12.781-12.416-14.973-11.412-.959.457-2.145-.685-18.031-17.072L214.5-346.21l4.063-4.382c8.947-9.54,14.562-19.309,17.894-31.132a72.6,72.6,0,0,0-18.716-71.3,70,70,0,0,0-19.4-14.105A72.755,72.755,0,0,0,158.128-474.481Zm16.433,11.868a27.541,27.541,0,0,1,13.968,8.171c6.117,6.117,8.81,12.6,8.81,21.044a29.191,29.191,0,0,1-6.026,18.168l-1.826,2.282,4.154,2.648A45.653,45.653,0,0,1,210.9-388.8c2.237,6.163,2.739,10.362,2.739,22.094,0,9.86-.046,10.5-.913,11.366-.913.913-1.506.913-45.648.913s-44.735,0-45.648-.913c-.867-.867-.913-1.506-.913-11.366,0-11.732.5-15.931,2.739-22.094a42.558,42.558,0,0,1,10-15.429,45.213,45.213,0,0,1,10.225-7.9l1.232-.776-1.826-2.282A29.264,29.264,0,0,1,136.81-433.4c0-8.445,2.648-14.881,8.81-21.044a28.426,28.426,0,0,1,13.786-8.171A32.7,32.7,0,0,1,174.561-462.613Z" transform="translate(-50.324 0)" fill="#fff"/>
        <path id="Path_130" data-name="Path 130" d="M221.279-436.306a24.955,24.955,0,0,0-17.529,17.027,30.044,30.044,0,0,0-.091,12.6,25.034,25.034,0,0,0,17.392,17.346,29.515,29.515,0,0,0,12.325,0,24.872,24.872,0,0,0,17.392-17.346,30.045,30.045,0,0,0-.091-12.6C246.978-431.924,233.74-439.593,221.279-436.306Z" transform="translate(-110.462 -20.555)" fill="#fff"/>
        <path id="Path_131" data-name="Path 131" d="M186.657-327.557a39.037,39.037,0,0,0-18.488,23.509c-.776,2.83-1,5.3-1.141,13.147l-.228,9.723h15.155V-286.2c0-4.428.091-5.113.913-5.934a3.368,3.368,0,0,1,2.054-.913,3.368,3.368,0,0,1,2.054.913c.822.822.913,1.506.913,5.934v5.021h39.257V-286.2c0-4.428.091-5.113.913-5.934a3.368,3.368,0,0,1,2.054-.913,3.368,3.368,0,0,1,2.054.913c.822.822.913,1.506.913,5.934v5.021h15.155l-.228-9.723c-.228-10.956-.685-13.329-3.561-19.446a37.745,37.745,0,0,0-16.068-17.209l-3.15-1.643-3.743,1.872a30.659,30.659,0,0,1-27.891,0c-1.917-.959-3.652-1.78-3.789-1.78A21.015,21.015,0,0,0,186.657-327.557Z" transform="translate(-90.768 -79.183)" fill="#fff"/>
        <path id="Path_132" data-name="Path 132" d="M43.7-417.458c-5.021,1.187-10.682,5.889-12.964,10.773-1.1,2.328-1.233,3.2-1.233,7.212.046,5.8,1.1,8.719,4.565,12.462a20.193,20.193,0,0,0,14.2,6.482c4.474,0,4.519-.046,5.386-4.976A82.572,82.572,0,0,1,60.632-406l2.556-5.158-1.461-1.506C57.665-416.864,49.95-418.919,43.7-417.458Z" transform="translate(-16.142 -30.958)" fill="#fff"/>
        <path id="Path_133" data-name="Path 133" d="M416.366-417.171a20.737,20.737,0,0,0-9.13,5.66L405-409.092l2.1,4.154a85.116,85.116,0,0,1,6.436,18.944c.73,4.017.867,4.245,2.191,4.7a21.726,21.726,0,0,0,9.449.5,19.724,19.724,0,0,0,10.636-6.071c3.515-3.926,4.519-6.665,4.565-12.462,0-4.245-.091-4.793-1.461-7.578a20.674,20.674,0,0,0-9.54-9.175,14.83,14.83,0,0,0-6.939-1.552A22.533,22.533,0,0,0,416.366-417.171Z" transform="translate(-220.233 -31.108)" fill="#fff"/>
        <path id="Path_134" data-name="Path 134" d="M14.453-332.194a30.306,30.306,0,0,0-13.01,16.3c-1.05,3.241-1.278,4.7-1.461,11.138L-.2-297.318H40.929l-1.1-3.2a86.323,86.323,0,0,1-3.88-24.7v-3.606H32.667a26.553,26.553,0,0,1-14.151-3.971l-1.506-.913Z" transform="translate(0 -76.737)" fill="#fff"/>
        <path id="Path_135" data-name="Path 135" d="M441.559-332.713c-4.2,2.876-13.055,4.565-17.848,3.424l-1.872-.411-.274,7.349A71.963,71.963,0,0,1,418.689-303c-.685,2.191-1.324,4.337-1.415,4.747-.228.776,1,.822,21.5.822H460.5v-5.843c0-6.847-.5-10-2.328-14.7a31.453,31.453,0,0,0-13.1-14.927l-1.78-1Z" transform="translate(-226.893 -76.628)" fill="#fff"/>
      </g>
    </g>
  </g>
</svg>
