<?xml version="1.0" encoding="utf-8"?>
<!-- Generator: Adobe Illustrator 24.0.0, SVG Export Plug-In . SVG Version: 6.00 Build 0)  -->
<svg version="1.1" id="Layer_1" xmlns="http://www.w3.org/2000/svg" xmlns:xlink="http://www.w3.org/1999/xlink" x="0px" y="0px"
	 viewBox="0 0 250 250" style="enable-background:new 0 0 250 250;" xml:space="preserve">
<style type="text/css">
	.st0{fill:#F91942;}
</style>
<g>
	<g>
		<g>
			<path class="st0" d="M189.52,161.16h40.32c6.65,0,12.1-5.44,12.1-12.09V132.2c4.69-1.66,8.06-6.09,8.06-11.33
				c0-6.65-5.44-12.09-12.1-12.09s-12.1,5.44-12.1,12.09c0,5.24,3.38,9.67,8.06,11.33v16.87c0,2.22-1.81,4.03-4.03,4.03h-40.32
				c-6.65,0-12.1,5.44-12.1,12.09v76.55h-8.06v-96.7c0-2.22,1.81-4.03,4.03-4.03h28.23c6.65,0,12.1-5.44,12.1-12.09v-12.84
				c4.69-1.66,8.06-6.09,8.06-11.33c0-6.65-5.44-12.09-12.1-12.09c-6.65,0-12.1,5.44-12.1,12.09c0,5.24,3.38,9.67,8.06,11.33v12.84
				c0,2.22-1.81,4.03-4.03,4.03h-28.23c-6.65,0-12.1,5.44-12.1,12.09v96.7h-8.06v-32.23h-8.06v32.23h-8.06v-16.12h-8.06v16.12h-8.06
				v-16.12h-8.06v16.12h-8.06v-32.23h-8.06v32.23h-8.06V136.99c0-6.65-5.44-12.09-12.1-12.09H44.35c-2.22,0-4.03-1.81-4.03-4.03
				V91.91c4.69-1.66,8.06-6.09,8.06-11.33c0-6.65-5.44-12.09-12.1-12.09s-12.1,5.44-12.1,12.09c0,5.24,3.38,9.67,8.06,11.33v28.96
				c0,6.65,5.44,12.09,12.1,12.09h32.26c2.22,0,4.03,1.81,4.03,4.03v104.75h-8.06v-84.61c0-6.65-5.44-12.09-12.1-12.09H20.16
				c-2.22,0-4.03-1.81-4.03-4.03v-28.96c4.69-1.66,8.06-6.09,8.06-11.33c0-6.65-5.44-12.09-12.1-12.09S0,94.08,0,100.72
				c0,5.24,3.38,9.67,8.06,11.33v28.96c0,6.65,5.44,12.09,12.1,12.09h40.32c2.22,0,4.03,1.81,4.03,4.03v84.61H16.13v8.06h217.74
				v-8.06h-48.39v-76.55C185.48,162.97,187.3,161.16,189.52,161.16z M237.9,116.84c2.22,0,4.03,1.81,4.03,4.03
				c0,2.22-1.81,4.03-4.03,4.03s-4.03-1.81-4.03-4.03C233.87,118.65,235.69,116.84,237.9,116.84z M209.68,100.72
				c2.22,0,4.03,1.81,4.03,4.03s-1.81,4.03-4.03,4.03c-2.22,0-4.03-1.81-4.03-4.03S207.46,100.72,209.68,100.72z M36.29,84.61
				c-2.22,0-4.03-1.81-4.03-4.03s1.81-4.03,4.03-4.03s4.03,1.81,4.03,4.03S38.51,84.61,36.29,84.61z M12.1,104.75
				c-2.22,0-4.03-1.81-4.03-4.03s1.81-4.03,4.03-4.03s4.03,1.81,4.03,4.03S14.31,104.75,12.1,104.75z"/>
			<path class="st0" d="M92.29,55.9l-4.33,4.33l17.09,17.12l4.33-4.33c1.16,0.55,2.32,1.01,3.53,1.46v6.09h24.19v-6.14
				c1.21-0.4,2.37-0.91,3.53-1.46l4.33,4.33l17.09-17.12l-4.33-4.33c0.55-1.16,1.01-2.32,1.46-3.53h6.15V28.2h-6.15
				c-0.4-1.21-0.91-2.37-1.46-3.53l4.33-4.33L144.96,3.27l-4.33,4.33c-1.16-0.55-2.32-1.01-3.53-1.46V0H112.9v6.14
				c-1.21,0.4-2.37,0.91-3.53,1.46l-4.33-4.33L87.95,20.35l4.33,4.33c-0.55,1.16-1.01,2.32-1.46,3.53h-6.15v24.17h6.15
				C91.23,53.59,91.73,54.74,92.29,55.9z M92.74,36.26h4.18l0.76-3.02c0.66-2.57,1.66-4.99,3.02-7.25l1.61-2.67l-2.97-2.97l5.7-5.69
				l2.97,2.97l2.67-1.61c2.27-1.31,4.69-2.37,7.26-3.02l3.02-0.76V8.06h8.06v4.18l3.02,0.76c2.57,0.65,4.99,1.66,7.26,3.02
				l2.67,1.61l2.97-2.97l5.7,5.69l-2.97,2.97l1.61,2.67c1.31,2.27,2.37,4.68,3.02,7.25l0.76,3.02h4.18v8.06h-4.18l-0.76,3.02
				c-0.66,2.57-1.66,4.99-3.02,7.25l-1.61,2.67l2.97,2.97l-5.7,5.69l-2.97-2.97l-2.67,1.61c-2.27,1.31-4.69,2.37-7.26,3.02
				l-3.02,0.76v4.18h-8.06v-4.18l-3.02-0.76c-2.57-0.65-4.99-1.66-7.26-3.02l-2.67-1.61l-2.97,2.97l-5.7-5.69l2.97-2.97l-1.61-2.67
				c-1.31-2.27-2.37-4.68-3.02-7.25l-0.76-3.02h-4.18V36.26z"/>
			<path class="st0" d="M125,60.43c11.14,0,20.16-9.01,20.16-20.14S136.14,20.14,125,20.14s-20.16,9.01-20.16,20.14
				S113.86,60.43,125,60.43z M125,28.2c6.65,0,12.1,5.44,12.1,12.09s-5.44,12.09-12.1,12.09s-12.1-5.44-12.1-12.09
				S118.35,28.2,125,28.2z"/>
			<rect x="112.9" y="88.64" class="st0" width="8.06" height="56.41"/>
			<rect x="129.03" y="88.64" class="st0" width="8.06" height="56.41"/>
			<path class="st0" d="M56.45,55.65v45.07c0,6.65,5.44,12.09,12.1,12.09h24.19c2.22,0,4.03,1.81,4.03,4.03v44.32h8.06v-44.32
				c0-6.65-5.44-12.09-12.1-12.09H68.55c-2.22,0-4.03-1.81-4.03-4.03V55.65c4.69-1.66,8.06-6.09,8.06-11.33
				c0-6.65-5.44-12.09-12.1-12.09s-12.1,5.44-12.1,12.09C48.39,49.56,51.76,53.99,56.45,55.65z M60.48,40.29
				c2.22,0,4.03,1.81,4.03,4.03s-1.81,4.03-4.03,4.03s-4.03-1.81-4.03-4.03S58.27,40.29,60.48,40.29z"/>
			<path class="st0" d="M181.45,75.8v32.99c0,2.22-1.81,4.03-4.03,4.03h-20.16c-6.65,0-12.1,5.44-12.1,12.09v36.26h8.06V124.9
				c0-2.22,1.81-4.03,4.03-4.03h20.16c6.65,0,12.1-5.44,12.1-12.09V75.8c4.69-1.66,8.06-6.09,8.06-11.33
				c0-6.65-5.44-12.09-12.1-12.09s-12.1,5.44-12.1,12.09C173.39,69.7,176.76,74.13,181.45,75.8z M185.48,60.43
				c2.22,0,4.03,1.81,4.03,4.03s-1.81,4.03-4.03,4.03s-4.03-1.81-4.03-4.03C181.45,62.25,183.27,60.43,185.48,60.43z"/>
			<path class="st0" d="M145.16,177.28v-2.01c0-7.76-6.35-14.1-14.11-14.1h-2.02v-8.06h-8.06v8.06h-2.02
				c-7.76,0-14.11,6.35-14.11,14.1c0,7.76,6.35,14.1,14.11,14.1h12.1c3.33,0,6.05,2.72,6.05,6.04s-2.72,6.04-6.05,6.04h-12.1
				c-3.33,0-6.05-2.72-6.05-6.04v-2.01h-8.06v2.01c0,7.76,6.35,14.1,14.11,14.1h2.02v8.06h8.06v-8.06h2.02
				c7.76,0,14.11-6.35,14.11-14.1s-6.35-14.1-14.11-14.1h-12.1c-3.33,0-6.05-2.72-6.05-6.04c0-3.32,2.72-6.04,6.05-6.04h12.1
				c3.33,0,6.05,2.72,6.05,6.04v2.01H145.16z"/>
			<rect x="241.94" y="241.74" class="st0" width="8.06" height="8.06"/>
			<rect y="241.74" class="st0" width="8.06" height="8.06"/>
		</g>
	</g>
</g>
</svg>
