<svg xmlns="http://www.w3.org/2000/svg" xmlns:xlink="http://www.w3.org/1999/xlink" width="250" height="250" viewBox="0 0 250 250">
  <defs>
    <clipPath id="clip-Regular_conformance_checks">
      <rect width="250" height="250"/>
    </clipPath>
  </defs>
  <g id="Regular_conformance_checks" data-name="Regular conformance checks" clip-path="url(#clip-Regular_conformance_checks)">
    <g id="Group_30" data-name="Group 30" transform="translate(-4620 -415)">
      <rect id="Rectangle_34" data-name="Rectangle 34" width="250" height="250" transform="translate(4620 415)" fill="none"/>
      <g id="checked" transform="translate(4627.4 934.861)">
        <path id="Path_136" data-name="Path 136" d="M105.688-511.6a120.12,120.12,0,0,0-46.624,14.993c-27.2,15.678-47.4,42.053-55.126,71.856C1.057-413.511.6-409.214.6-394.907c0,11.336.091,13.759.96,18.741,4.3,24.684,14.627,45.116,31.677,62.806,17.507,18.193,39.585,29.712,65.366,34.237,4.982.868,7.405.96,18.741.96,14.307,0,18.6-.457,29.849-3.337,49-12.662,85.3-57.412,87.032-107.51.32-8.731.046-10.1-2.605-12.479-3.52-3.154-7.862-3.337-11.839-.366-2.377,1.783-3.108,4.022-3.428,10.7a99.608,99.608,0,0,1-21.621,58.006A126.258,126.258,0,0,1,179.1-317.519a101.4,101.4,0,0,1-47.63,20.752,121.649,121.649,0,0,1-28.249,0,99.132,99.132,0,0,1-55.812-28.2,99.132,99.132,0,0,1-28.2-55.812,121.646,121.646,0,0,1,0-28.249,99.132,99.132,0,0,1,28.2-55.812A98.279,98.279,0,0,1,113.6-493.915c6.674-.32,8.913-1.051,10.7-3.428a11.348,11.348,0,0,0,2.194-5.622c0-3.245-2.514-7.176-5.348-8.319C119.721-511.879,110.67-512.062,105.688-511.6Z" transform="translate(0 0)" fill="#fff"/>
        <path id="Path_137" data-name="Path 137" d="M283.149-447.124c-1.28.549-17.69,16.593-55.081,53.847l-53.252,53.069-19.427-21.118c-13.393-14.536-19.975-21.347-21.21-21.941a9.846,9.846,0,0,0-8.685.366,9.118,9.118,0,0,0-4.251,8.548,11.3,11.3,0,0,0,1.188,3.748c1.188,1.874,45.573,50.007,47.219,51.241,1.554,1.1,5.988,1.508,8.319.731,1.234-.411,15.039-13.85,58.829-57.5,34.328-34.191,57.5-57.641,58.052-58.646a10.487,10.487,0,0,0,.868-4.434A8.718,8.718,0,0,0,283.149-447.124Z" transform="translate(-65.472 -34.677)" fill="#fff"/>
      </g>
    </g>
  </g>
</svg>
