<svg xmlns="http://www.w3.org/2000/svg" width="24" height="24" viewBox="0 0 24 24">
  <path id="skypeforbusiness" d="M14.04,10.92l-2.52-.56c-.96-.24-2.04-.52-2.04-1.44s.76-1.56,2.16-1.56c2.84,0,2.6,1.96,4,1.96A1.214,1.214,0,0,0,17,8.16c0-1.76-2.8-3.08-5.2-3.08-2.56,0-5.28,1.08-5.28,4,0,1.4.48,2.92,3.24,3.64l3.44.88c1.04.24,1.36.84,1.36,1.36,0,.88-.92,1.84-2.48,1.84C9,16.8,9.44,14.36,7.8,14.36A1.265,1.265,0,0,0,6.48,15.6c0,1.44,1.76,3.4,5.6,3.4,3.68,0,5.52-1.84,5.52-4.24-.04-1.6-.76-3.2-3.56-3.84Zm9.08,3.04A10.514,10.514,0,0,0,23.28,12,11.267,11.267,0,0,0,12,.72a10.514,10.514,0,0,0-1.96.16A6.716,6.716,0,0,0,0,6.72a6.634,6.634,0,0,0,.88,3.32A10.514,10.514,0,0,0,.72,12,11.267,11.267,0,0,0,12,23.28a10.514,10.514,0,0,0,1.96-.16A6.716,6.716,0,0,0,24,17.28a6.634,6.634,0,0,0-.88-3.32Zm-5.84,8.32a5.318,5.318,0,0,1-2.48-.64l-.52-.32-.6.12A10.889,10.889,0,0,1,12,21.6a9.56,9.56,0,0,1-9.56-9.56,7.969,7.969,0,0,1,.16-1.68l.12-.6L2.4,9.24a4.881,4.881,0,0,1-.64-2.48,5,5,0,0,1,5-5,5.318,5.318,0,0,1,2.48.64l.52.32.6-.12a11.935,11.935,0,0,1,1.68-.16A9.56,9.56,0,0,1,21.6,12a7.969,7.969,0,0,1-.16,1.68l-.12.6.32.52a4.881,4.881,0,0,1,.64,2.48,5,5,0,0,1-5,5Z" fill="#fff"/>
</svg>
