<svg xmlns="http://www.w3.org/2000/svg" xmlns:xlink="http://www.w3.org/1999/xlink" width="250" height="250" viewBox="0 0 250 250">
  <defs>
    <clipPath id="clip-Strong_Security_team">
      <rect width="250" height="250"/>
    </clipPath>
  </defs>
  <g id="Strong_Security_team" data-name="Strong Security team" clip-path="url(#clip-Strong_Security_team)">
    <g id="Group_5" data-name="Group 5" transform="translate(-5084 -208)">
      <rect id="Rectangle_7" data-name="Rectangle 7" width="250" height="250" transform="translate(5084 208)" fill="none"/>
      <g id="padlock" transform="translate(5057.15 727.732)">
        <path id="Path_8" data-name="Path 8" d="M145.057-511.581a61.755,61.755,0,0,0-26.438,9.892c-4.376,2.917-12.444,10.986-15.362,15.362a61.377,61.377,0,0,0-8.889,20.513c-.866,3.51-.957,5.7-1.14,22.655L93-424.334H88.123a35.992,35.992,0,0,0-7.567.684A22.305,22.305,0,0,0,64.6-407.605c-1,3.92-1,108.488,0,112.409a22.305,22.305,0,0,0,15.954,16.045c2.37.593,11.122.684,70.882.684,75.03,0,70.609.182,76.17-2.781A23.043,23.043,0,0,0,238.5-296.2c.273-1.6.456-21.379.456-55.612,0-57.891.091-55.521-2.553-60.763a24.8,24.8,0,0,0-8.8-8.98c-3.829-2.051-7.248-2.781-12.855-2.781h-4.877l-.228-18.826c-.182-16.957-.273-19.145-1.14-22.655a57.408,57.408,0,0,0-16-28.763,56.188,56.188,0,0,0-28.763-15.954C159.963-511.4,148.658-512.037,145.057-511.581Zm14.131,19.966a43.311,43.311,0,0,1,13.174,5.379,40.606,40.606,0,0,1,17.322,25.663c.319,1.6.5,9.345.5,19.464v16.775H112.693v-17c0-18.507.182-20.057,2.689-26.53a39.11,39.11,0,0,1,28.079-23.7A51.964,51.964,0,0,1,159.188-491.615Zm-1.094,107.44a19.5,19.5,0,0,1,12.535,15.407,19.5,19.5,0,0,1-7.339,18.005l-2.234,1.687-.137,12.718-.137,12.672-1.368,2.006c-4.422,6.29-13.949,5.379-16.866-1.55-.547-1.413-.684-3.92-.684-13.766v-12.034l-2.325-1.732a19.455,19.455,0,0,1-7.293-17.914,19.412,19.412,0,0,1,20.786-16.592A24.862,24.862,0,0,1,158.094-384.175Z" transform="translate(0)" fill="#fff"/>
      </g>
    </g>
  </g>
</svg>
