<svg xmlns="http://www.w3.org/2000/svg" xmlns:xlink="http://www.w3.org/1999/xlink" width="250" height="250" viewBox="0 0 250 250">
  <defs>
    <clipPath id="clip-technical_team">
      <rect width="250" height="250"/>
    </clipPath>
  </defs>
  <g id="technical_team" data-name="technical team" clip-path="url(#clip-technical_team)">
    <g id="Group_28" data-name="Group 28" transform="translate(-5968 -688)">
      <rect id="Rectangle_32" data-name="Rectangle 32" width="250" height="250" transform="translate(5968 688)" fill="none"/>
      <g id="meeting" transform="translate(5976.809 1206.825)">
        <path id="Path_122" data-name="Path 122" d="M217.343-510.17a26.34,26.34,0,0,0-13.846,7.728c-8.97,8.97-10.9,20.885-5.244,32.385A27.874,27.874,0,0,0,229.717-455.7a27.687,27.687,0,0,0,18.217-14.352c5.658-11.5,3.726-23.415-5.244-32.385a25.672,25.672,0,0,0-14.168-7.728A24.154,24.154,0,0,0,217.343-510.17Z" transform="translate(-105.895 0)" fill="#fff"/>
        <path id="Path_123" data-name="Path 123" d="M24.254-479.3A28.252,28.252,0,0,0,.241-449.862a27.744,27.744,0,0,0,29.3,26.083,27.468,27.468,0,0,0,23.783-15.732,27.254,27.254,0,0,0-5.382-31.557A27.668,27.668,0,0,0,24.254-479.3Z" transform="translate(0 -16.882)" fill="#fff"/>
        <path id="Path_124" data-name="Path 124" d="M414.428-479.239a28.292,28.292,0,0,0-23.645,22.173,23.559,23.559,0,0,0-.046,11.178,28.036,28.036,0,0,0,40.021,19.321,28.149,28.149,0,0,0,14.767-30.591,29.152,29.152,0,0,0-12.144-17.757A29.7,29.7,0,0,0,414.428-479.239Z" transform="translate(-211.875 -16.946)" fill="#fff"/>
        <path id="Path_125" data-name="Path 125" d="M173.281-369.436c-5.428,1.748-6.992,2.53-10.258,4.968a28.079,28.079,0,0,0-7.406,9.292c-2.024,4.6-2.116,5.98-2.116,27.049v20.149l1.288,1.242,1.242,1.288h89.243l1.242-1.288,1.288-1.242v-20.379c0-15.134-.138-20.885-.6-22.4-2.024-7.084-5.888-12.236-11.822-15.687-2.346-1.38-11.592-4.554-13.248-4.554a3.063,3.063,0,0,0-1.7.69c-.414.368-5.014,12.282-10.166,26.451S200.79-318.1,200.652-318.1s-4.462-11.592-9.614-25.761-9.752-26.083-10.166-26.451C179.767-371.276,178.525-371.138,173.281-369.436Z" transform="translate(-83.453 -75.503)" fill="#fff"/>
        <path id="Path_126" data-name="Path 126" d="M241.966-369.8A4.3,4.3,0,0,0,241-368.01a21.118,21.118,0,0,0,2.116,3.818l2.116,3.312-.828,7.268-.828,7.314,1.748,4.646c2.3,6.164,2.806,6.164,5.06.276a27.847,27.847,0,0,0,1.656-5.658c0-.644-.322-4-.736-7.5l-.782-6.256,2.116-3.358a20.857,20.857,0,0,0,2.162-3.864,4.3,4.3,0,0,0-.966-1.794c-.92-1.15-1.1-1.2-5.934-1.2S242.886-370.954,241.966-369.8Z" transform="translate(-130.702 -75.503)" fill="#fff"/>
        <path id="Path_127" data-name="Path 127" d="M24.957-340.209A25.807,25.807,0,0,0,7.569-324.522l-1.288,3.174-.138,34.363c-.138,38-.184,37.261,2.76,42.827a26.271,26.271,0,0,0,16.377,12.236c1.472.322,8.648.506,18.263.506H59.412v20.839c0,23.691-.092,23.093,3.726,25.071,2.024,1.012,2.208,1.058,17.067.92,14.352-.138,15.089-.184,16.285-1.1A12.541,12.541,0,0,0,98.7-187.9c.966-1.242.966-1.794,1.1-31.925.092-20.057-.046-31.787-.368-33.9a20.732,20.732,0,0,0-15-17.021c-2.07-.552-5.52-.69-15.226-.69H56.652v-23.6c0-26.175-.092-26.911-3.036-32.523A25.761,25.761,0,0,0,40.23-339.381C36.274-340.9,28.867-341.267,24.957-340.209Z" transform="translate(-3.187 -91.804)" fill="#fff"/>
        <path id="Path_128" data-name="Path 128" d="M364.269-340.2a25.735,25.735,0,0,0-16.239,13.2c-2.622,5.152-2.714,6.21-2.714,31.971v23.6H332.758c-9.706,0-13.156.138-15.226.69a20.732,20.732,0,0,0-15,17.021c-.322,2.116-.46,13.846-.368,33.9.138,30.131.138,30.683,1.1,31.925a12.541,12.541,0,0,0,2.208,2.208c1.2.92,1.932.966,16.285,1.1,14.858.138,15.043.092,17.067-.92,3.818-1.978,3.726-1.38,3.726-25.071V-231.4h16.009c17.619,0,19-.184,24.381-2.852a27.806,27.806,0,0,0,10.12-9.89c2.944-5.566,2.9-4.83,2.76-42.827l-.138-34.363-1.288-3.22a26.464,26.464,0,0,0-15-14.858C375.54-340.841,368-341.255,364.269-340.2Z" transform="translate(-164.385 -91.816)" fill="#fff"/>
      </g>
    </g>
  </g>
</svg>
