<?xml version="1.0" encoding="utf-8"?>
<!-- Generator: Adobe Illustrator 24.0.0, SVG Export Plug-In . SVG Version: 6.00 Build 0)  -->
<svg version="1.1" id="Layer_1" xmlns="http://www.w3.org/2000/svg" xmlns:xlink="http://www.w3.org/1999/xlink" x="0px" y="0px"
	 viewBox="0 0 250 250" style="enable-background:new 0 0 250 250;" xml:space="preserve">
<style type="text/css">
	.st0{fill:#F91942;}
</style>
<g transform="translate(1 1)">
	<g>
		<g>
			<path class="st0" d="M154.89,114.29c-1.74-3.33-3.52-5.74-4.92-7.42c-0.29-0.43-0.58-0.77-0.96-1.11
				c-0.58-4.53-3.04-9.06-7.18-13.83l6.07-6.07c1.64-1.64,1.64-4.1,0-5.74c-1.64-1.64-4.1-1.64-5.74,0l-6.36,6.36
				c-6.99-4.39-15.86-4.34-22.56,0.1l-6.46-6.46c-1.64-1.64-4.1-1.64-5.74,0s-1.64,4.1,0,5.74l6.22,6.22
				c-4.19,4.63-6.65,9.11-7.28,13.74c-0.39,0.29-0.67,0.58-0.96,1.01c-1.35,1.64-3.08,4-4.77,7.23l-9.59-6.41h-9.45
				c-2.46,0-4.1,1.64-4.1,4.1c0,2.46,1.64,4.1,4.1,4.1h6.99l8.77,5.88c-1.35,4.1-2.51,8.97-3.04,14.7h-14.8l-9.88,13.98
				c-1.25,2.07-0.82,4.53,1.25,5.74c0.82,0.43,1.64,0.82,2.46,0.82c1.25,0,2.46-0.82,3.28-1.64l6.99-10.7H87.5
				c0,0.29-0.19,9.06,6.12,20.58h-8.58l-9.45,13.98c-1.25,2.07-0.82,4.53,1.25,5.74c0.82,0.43,1.64,0.82,2.46,0.82
				c1.25,0,2.46-0.82,3.28-1.64l6.99-10.7h9.45c1.78,2.31,3.81,4.63,6.17,6.99l2.46,2.46c4.53,4.53,10.7,6.99,16.87,6.99
				c6.17,0,12.34-2.46,16.87-6.99l2.46-2.46c2.41-2.36,4.48-4.68,6.27-6.99h9.35l6.99,10.7c0.82,0.82,2.07,1.64,3.28,1.64
				c0.82,0,1.64-0.43,2.07-0.82c2.07-1.25,2.46-3.71,1.25-5.74l-9.45-13.98h-8.05c5.98-10.89,5.98-19.43,5.98-20.58h10.27l6.99,10.7
				c0.82,0.82,2.07,1.64,3.28,1.64c0.82,0,1.64-0.43,2.07-0.82c2.07-1.25,2.46-3.71,1.25-5.74l-9.45-13.98h-14.85
				c-0.58-5.74-1.69-10.65-3.04-14.7l8.77-5.88h6.99c2.46,0,4.1-1.64,4.1-4.1c0-2.46-1.64-4.1-4.1-4.1h-9.06L154.89,114.29z
				 M133.1,94.53c4.92,4.92,7.81,9.45,7.81,12.77c0,0.19-0.05,1.06-0.29,2.36c0,0.1-0.05,0.24-0.05,0.34v0.05
				c-0.58,2.6-1.78,6.31-4.43,9.25l0,0c-0.19,0.19-0.39,0.39-0.58,0.58l-0.05,0.05c-0.19,0.19-0.39,0.39-0.58,0.53l-0.05,0.05
				c-0.53,0.48-1.16,0.92-1.78,1.35c-0.14,0.1-0.24,0.14-0.39,0.24c-0.14,0.1-0.29,0.14-0.43,0.24c-0.14,0.1-0.34,0.19-0.48,0.24
				s-0.29,0.14-0.43,0.19c-0.19,0.1-0.34,0.14-0.53,0.24c-0.14,0.05-0.29,0.1-0.43,0.14c-0.19,0.05-0.39,0.14-0.58,0.19
				c-0.14,0.05-0.29,0.1-0.43,0.14c-0.19,0.05-0.43,0.1-0.63,0.14c-0.14,0.05-0.29,0.05-0.48,0.1c-0.24,0.05-0.48,0.1-0.72,0.14
				c-0.14,0.05-0.29,0.05-0.48,0.05c-0.29,0.05-0.53,0.05-0.82,0.1c-0.14,0-0.29,0.05-0.43,0.05c-0.43,0.05-0.87,0.05-1.3,0.05
				c-0.43,0-0.87,0-1.3-0.05c-0.14,0-0.24-0.05-0.39-0.05c-0.29,0-0.58-0.05-0.82-0.1c-0.14,0-0.29-0.05-0.43-0.05
				c-0.24-0.05-0.48-0.1-0.72-0.14c-0.14-0.05-0.29-0.05-0.48-0.1c-0.19-0.05-0.43-0.1-0.63-0.14c-0.14-0.05-0.34-0.1-0.48-0.14
				c-0.19-0.05-0.39-0.1-0.53-0.19c-0.19-0.05-0.34-0.14-0.48-0.19s-0.29-0.1-0.43-0.19c-0.19-0.1-0.39-0.14-0.53-0.24
				c-0.1-0.05-0.19-0.1-0.29-0.14c-0.19-0.1-0.43-0.24-0.63-0.34c-0.05,0-0.05-0.05-0.1-0.05c-6.36-3.76-7.86-11.62-8.15-14.36
				c0-3.71,2.89-8.24,7.81-13.16c2.46-2.07,5.74-3.28,8.63-3.28C127.37,91.25,130.65,92.46,133.1,94.53z M138.07,174.74l-2.46,2.46
				c-6.17,6.17-16.05,6.17-22.22,0l-2.46-2.46C95.7,159.51,95.7,145.53,95.7,144.71c0-9.5,1.59-16.77,3.57-22.12
				c0.05-0.05,0.1-0.05,0.14-0.1c0.39-0.63,0.63-1.3,0.67-1.98c0.58-1.4,1.21-2.7,1.78-3.81c2.84,7.09,8.44,13.54,17.83,15.23h0.05
				c0.92,0.14,1.88,0.29,2.89,0.34c0.1,0,0.24,0,0.34,0c0.48,0.05,0.96,0.05,1.49,0.05s1.01,0,1.49-0.05c0.1,0,0.24,0,0.34,0
				c1.01-0.05,1.98-0.19,2.89-0.34h0.05c9.4-1.64,14.99-8.15,17.83-15.23c2.89,5.35,6.17,14.41,6.17,27.96
				C153.25,145.14,153.69,159.12,138.07,174.74z"/>
			<path class="st0" d="M214.9,53.37c-0.19-1.21-0.87-2.17-1.88-2.75L165.06,2.71c-0.53-1.01-1.49-1.64-2.75-1.88
				c-0.34-0.1-0.67-0.1-1.06-0.1H46.34C39.35,0.73,34,6.08,34,13.07v222.12c0,6.99,5.35,12.34,12.34,12.34h156.32
				c6.99,0,12.34-5.35,12.34-12.34V54.43C215,54.09,214.95,53.7,214.9,53.37z M200.97,50.09h-31.28c-2.46,0-4.1-1.64-4.1-4.1V14.71
				L200.97,50.09z M206.76,235.19c0,2.46-1.64,4.1-4.1,4.1H46.34c-2.46,0-4.1-1.64-4.1-4.1V13.07c0-2.46,1.64-4.1,4.1-4.1H157.4
				v37.02c0,6.99,5.35,12.34,12.34,12.34h37.02V235.19z"/>
			<path class="st0" d="M71.02,50.09H99.8c2.46,0,4.1-1.64,4.1-4.1c0-2.46-1.64-4.1-4.1-4.1H71.02c-2.46,0-4.1,1.64-4.1,4.1
				C66.87,48.45,68.51,50.09,71.02,50.09z"/>
			<path class="st0" d="M83.36,62.43c0-2.46-1.64-4.1-4.1-4.1H58.68c-2.46,0-4.1,1.64-4.1,4.1c0,2.46,1.64,4.1,4.1,4.1h20.58
				C81.72,66.57,83.36,64.94,83.36,62.43z"/>
			<path class="st0" d="M99.8,58.33h-4.1c-2.46,0-4.1,1.64-4.1,4.1c0,2.46,1.64,4.1,4.1,4.1h4.1c2.46,0,4.1-1.64,4.1-4.1
				C103.89,59.97,102.25,58.33,99.8,58.33z"/>
			<path class="st0" d="M157.4,206.41c0,2.46,1.64,4.1,4.1,4.1h28.78c2.46,0,4.1-1.64,4.1-4.1c0-2.46-1.64-4.1-4.1-4.1H161.5
				C159.04,202.31,157.4,203.95,157.4,206.41z"/>
			<path class="st0" d="M169.74,218.75h-20.58c-2.46,0-4.1,1.64-4.1,4.1s1.64,4.1,4.1,4.1h20.58c2.46,0,4.1-1.64,4.1-4.1
				C173.84,220.39,172.2,218.75,169.74,218.75z"/>
			<path class="st0" d="M190.27,218.75h-4.1c-2.46,0-4.1,1.64-4.1,4.1s1.64,4.1,4.1,4.1h4.1c2.46,0,4.1-1.64,4.1-4.1
				C194.42,220.39,192.78,218.75,190.27,218.75z"/>
		</g>
	</g>
</g>
</svg>
